<?xml version="1.0" standalone="no"?>
<!DOCTYPE svg PUBLIC "-//W3C//DTD SVG 20010904//EN"
 "http://www.w3.org/TR/2001/REC-SVG-20010904/DTD/svg10.dtd">
<svg version="1.0" xmlns="http://www.w3.org/2000/svg"
 width="512.000000pt" height="512.000000pt" viewBox="0 0 512.000000 512.000000"
 preserveAspectRatio="xMidYMid meet">
<metadata>
Created by potrace 1.11, written by Peter Selinger 2001-2013
</metadata>
<g transform="translate(0.000000,512.000000) scale(0.100000,-0.100000)"
fill="#000000" stroke="none">
<path d="M1910 5110 c-8 -5 -10 -10 -5 -10 6 0 2 -5 -7 -11 -10 -5 -18 -17
-18 -24 0 -8 -4 -15 -10 -15 -5 0 -10 -7 -10 -15 0 -8 -5 -15 -11 -15 -5 0 -7
-4 -4 -10 3 -5 1 -10 -5 -10 -6 0 -8 -4 -5 -10 3 -5 2 -10 -4 -10 -6 0 -20
-18 -31 -40 -11 -22 -17 -40 -13 -40 4 0 -2 -6 -13 -14 -10 -8 -16 -18 -12
-21 4 -4 2 -13 -5 -21 -24 -26 -33 -39 -35 -47 -1 -4 -9 -21 -17 -37 -9 -17
-12 -30 -9 -30 4 0 -1 -9 -10 -19 -10 -11 -19 -25 -20 -33 -2 -7 -9 -26 -16
-43 -13 -29 -17 -42 -23 -67 -1 -7 -6 -18 -9 -24 -4 -6 -9 -30 -10 -52 -2 -23
-5 -42 -8 -42 -3 0 -6 -12 -5 -27 0 -16 -4 -31 -10 -35 -6 -5 -5 -8 3 -8 8 0
10 -5 6 -12 -11 -18 -11 -278 0 -278 6 0 5 -5 -1 -11 -7 -7 -8 -21 -4 -33 4
-11 6 -40 5 -63 0 -25 3 -40 8 -36 6 3 5 -4 -1 -16 -7 -11 -8 -21 -4 -21 7 0
15 -61 17 -132 0 -16 3 -28 6 -28 3 0 6 -15 7 -32 4 -64 12 -118 19 -130 5 -7
7 -23 5 -35 -1 -13 1 -23 6 -23 5 0 9 -10 10 -22 0 -13 4 -41 8 -63 l6 -40
-47 2 c-26 1 -52 -1 -58 -4 -5 -4 -30 -8 -55 -9 -54 -3 -71 -7 -88 -17 -7 -5
-17 -6 -22 -3 -4 3 -16 -1 -27 -8 -10 -8 -24 -12 -31 -9 -7 3 -13 0 -13 -6 0
-6 -7 -8 -16 -4 -9 3 -20 0 -25 -8 -7 -11 -9 -11 -9 -1 0 7 -5 10 -10 7 -6 -4
-8 -10 -5 -14 2 -5 -7 -7 -20 -5 -14 1 -25 -1 -25 -4 0 -4 -14 -8 -32 -9 -17
-1 -35 -8 -40 -15 -6 -10 -8 -10 -8 0 0 8 -5 10 -12 6 -20 -13 -76 -15 -83 -4
-3 6 -11 7 -18 3 -15 -9 -57 -10 -51 -1 3 4 0 9 -5 9 -34 4 -61 20 -54 32 3 5
1 7 -4 4 -14 -9 -73 46 -73 67 0 9 -4 16 -8 16 -10 0 -9 30 2 48 4 7 2 12 -6
12 -9 0 -9 3 2 10 8 5 11 10 6 10 -5 0 -1 10 10 22 13 14 14 19 4 14 -8 -4 -7
-1 3 7 10 9 19 19 20 24 1 4 5 7 9 5 5 -1 8 4 8 11 0 7 7 22 16 33 8 10 12 12
8 4 -4 -8 4 -4 18 10 13 14 23 28 21 33 -2 4 3 7 11 7 9 0 16 3 16 8 0 4 10
12 23 17 12 6 21 17 19 24 -1 7 2 10 8 6 5 -3 10 -1 10 5 0 6 5 8 10 5 6 -3
10 -2 10 4 0 6 12 17 28 25 15 8 23 15 17 16 -6 0 -5 4 1 8 8 5 3 14 -15 27
-16 12 -22 14 -16 4 6 -8 2 -7 -7 4 -12 12 -33 19 -68 20 -27 2 -50 -1 -50 -5
0 -4 -3 -7 -7 -6 -13 3 -86 -33 -112 -56 -15 -13 -21 -15 -17 -6 4 8 -1 5 -11
-6 -10 -12 -28 -25 -41 -29 -12 -3 -20 -11 -17 -16 5 -8 -1 -11 -21 -8 -3 0
-11 -7 -18 -17 -8 -11 -18 -14 -26 -9 -8 5 -11 4 -7 -1 3 -6 -17 -25 -44 -43
-27 -19 -49 -39 -49 -44 0 -6 -3 -7 -6 -4 -4 4 -15 -3 -25 -15 -11 -11 -19
-17 -19 -13 0 4 -11 -4 -25 -19 -13 -14 -29 -26 -35 -26 -5 0 -10 -5 -10 -11
0 -5 -5 -7 -12 -3 -8 5 -9 2 -5 -9 3 -9 2 -16 -2 -14 -5 1 -21 -10 -37 -25
-37 -34 -57 -58 -48 -58 3 0 -1 -11 -10 -25 -9 -14 -14 -25 -10 -25 4 0 2 -6
-4 -13 -13 -16 -24 -60 -26 -109 0 -20 -4 -34 -8 -32 -3 2 -4 -31 -2 -74 5
-91 7 -103 17 -119 5 -7 6 -13 3 -13 -3 0 1 -15 9 -34 8 -18 11 -36 8 -40 -4
-3 -1 -6 5 -6 7 0 12 -3 11 -7 -2 -15 14 -53 22 -53 5 0 6 -7 3 -15 -4 -8 -1
-15 6 -15 6 0 8 -4 5 -10 -3 -5 -1 -10 4 -10 6 0 11 -9 11 -20 0 -11 4 -20 9
-20 4 0 14 -20 21 -45 7 -25 17 -45 23 -45 5 0 5 -5 -2 -13 -6 -8 -8 -16 -5
-20 3 -3 -4 -10 -15 -17 -12 -6 -19 -15 -16 -21 4 -5 3 -9 -2 -8 -4 1 -15 1
-23 0 -13 -1 -13 -2 0 -11 8 -5 10 -10 4 -10 -6 0 -31 -18 -54 -40 -23 -22
-40 -40 -36 -40 4 0 -9 -16 -28 -35 -20 -19 -32 -35 -28 -36 4 0 -2 -4 -13 -8
-11 -4 -27 -21 -36 -37 -9 -16 -22 -28 -28 -26 -6 1 -10 -1 -10 -5 3 -21 -3
-33 -17 -33 -8 0 -12 -5 -9 -10 3 -6 -1 -13 -10 -16 -8 -4 -29 -19 -46 -35
-17 -16 -35 -26 -40 -23 -5 3 -9 1 -9 -5 0 -5 -9 -13 -20 -16 -19 -6 -20 -15
-20 -179 0 -171 0 -172 23 -172 12 0 25 5 29 10 5 8 8 8 8 0 0 -11 19 -11 105
2 22 3 55 7 72 7 18 1 33 4 33 8 0 3 10 6 23 7 35 2 70 9 99 21 24 9 26 8 21
-7 -3 -9 -11 -21 -18 -27 -7 -5 -13 -13 -13 -18 -7 -36 -16 -56 -23 -51 -5 3
-10 0 -10 -5 -2 -16 -4 -23 -19 -56 -7 -16 -13 -33 -12 -37 1 -5 -3 -8 -9 -8
-6 0 -9 -6 -6 -14 3 -8 2 -16 -4 -18 -5 -2 -11 -19 -13 -39 -2 -20 -6 -41 -10
-48 -4 -6 -4 -15 -1 -21 3 -6 3 -10 -2 -10 -4 0 -8 -15 -7 -32 0 -18 -3 -41
-8 -50 -4 -9 -4 -19 0 -22 10 -6 8 -68 -3 -86 -6 -9 -4 -11 5 -5 10 6 12 3 8
-13 -4 -13 -1 -22 5 -22 7 0 5 -5 -3 -10 -8 -5 -10 -10 -3 -10 6 0 9 -8 6 -19
-2 -10 2 -25 11 -33 8 -9 12 -18 9 -22 -3 -3 0 -12 7 -21 7 -8 10 -22 6 -30
-3 -8 -1 -15 5 -15 6 0 7 -4 4 -10 -3 -5 -1 -10 4 -10 6 0 10 -3 10 -7 -4 -26
2 -43 14 -37 6 4 9 4 5 -1 -4 -4 -2 -15 5 -23 10 -13 9 -15 -3 -8 -9 4 -8 1 3
-7 9 -8 17 -20 17 -26 0 -7 15 -33 32 -59 18 -26 32 -50 30 -54 -1 -4 6 -4 15
-1 13 5 15 2 9 -12 -4 -11 -4 -17 -1 -13 4 3 20 -8 36 -24 16 -17 29 -27 29
-22 0 5 5 1 11 -9 6 -9 14 -15 20 -12 5 3 6 -1 3 -10 -4 -9 -9 -14 -11 -11 -3
3 -16 -7 -29 -21 -13 -14 -24 -23 -24 -19 0 4 -16 -9 -35 -29 -20 -19 -40 -35
-45 -35 -6 0 -10 -7 -10 -15 0 -8 -4 -14 -8 -12 -4 1 -25 -15 -46 -35 -22 -21
-35 -38 -30 -38 5 0 2 -5 -6 -10 -8 -5 -16 -14 -16 -20 -1 -5 -3 -11 -4 -12
-8 -9 -3 -98 5 -98 5 0 3 -5 -5 -10 -8 -5 -10 -10 -4 -10 7 0 15 -7 18 -16 4
-10 2 -13 -7 -8 -6 4 -3 -2 7 -14 11 -12 16 -22 12 -22 -4 0 -1 -6 6 -13 7 -8
22 -26 33 -41 20 -28 75 -63 75 -49 0 5 4 1 9 -6 13 -20 193 -19 226 0 6 4 20
5 33 4 12 -1 22 2 22 7 0 4 10 8 22 8 24 0 147 64 164 85 6 8 16 15 24 17 7 2
21 10 30 18 38 34 61 50 70 50 6 0 10 5 10 10 0 6 6 10 13 10 7 0 20 9 30 20
10 12 22 18 27 15 6 -3 10 1 10 10 0 9 4 14 9 10 5 -3 15 1 23 8 14 14 56 16
76 4 7 -5 12 -3 12 5 0 8 3 9 8 3 11 -16 46 -19 36 -3 -6 10 -5 10 7 2 12 -10
58 -16 112 -15 9 0 15 -4 12 -10 -4 -5 6 -4 21 1 15 6 30 7 33 2 8 -12 51 -10
51 3 0 5 5 3 10 -5 5 -8 10 -12 10 -9 0 4 16 3 35 -1 24 -5 35 -4 35 4 0 6 5
4 10 -4 6 -10 10 -11 10 -3 0 9 7 10 24 3 13 -5 27 -6 31 -2 3 3 10 0 15 -8 6
-8 10 -10 10 -4 0 9 54 12 70 4 13 -6 36 -4 42 5 5 6 8 5 8 -2 0 -7 5 -13 11
-13 5 0 7 6 3 13 -6 9 -4 9 8 -1 12 -9 18 -10 23 -2 4 7 11 7 18 2 12 -9 43
-11 195 -15 47 -1 82 -6 82 -12 0 -5 5 -3 10 5 9 13 10 13 10 0 0 -9 3 -11 8
-5 10 14 32 17 32 4 0 -8 4 -9 13 0 8 6 17 7 21 3 11 -10 30 -9 38 3 5 6 8 6
8 -2 0 -7 11 -10 28 -9 15 2 35 -1 46 -6 10 -6 16 -6 13 -1 -6 9 130 9 139 1
2 -3 24 -2 49 2 40 6 43 5 32 -9 -9 -12 -5 -11 17 3 16 10 25 13 21 6 -5 -9
-1 -10 14 -5 13 4 21 2 21 -5 0 -6 5 -8 13 -3 20 12 37 12 37 0 0 -8 3 -8 8
-2 10 14 32 17 32 4 0 -8 4 -8 14 0 10 9 16 9 21 1 5 -8 11 -8 21 1 15 12 18
2 8 -25 -3 -9 -11 -13 -17 -9 -6 4 -8 0 -4 -10 3 -10 2 -17 -4 -17 -6 0 -8 -4
-5 -9 3 -5 -1 -12 -10 -15 -9 -4 -14 -9 -11 -12 3 -4 -1 -13 -9 -22 -17 -17
-18 -118 -1 -140 5 -7 7 -15 4 -19 -4 -3 1 -12 11 -20 9 -8 12 -12 5 -9 -8 5
-8 0 0 -18 7 -13 15 -22 19 -20 5 3 8 -2 8 -10 0 -9 5 -16 10 -16 6 0 10 -7
10 -16 0 -8 4 -12 10 -9 5 3 10 1 10 -4 0 -6 7 -11 15 -11 8 0 15 -4 15 -8 0
-5 10 -8 23 -7 12 1 33 -1 47 -5 14 -4 37 -3 52 1 16 4 30 3 34 -2 3 -5 10 -6
16 -3 10 7 63 14 116 17 12 0 22 4 22 8 0 3 8 6 18 6 26 -2 122 26 122 35 0 4
7 8 16 8 8 0 12 4 9 10 -3 6 1 7 9 4 10 -4 16 -1 16 7 0 7 3 10 6 7 3 -3 16 5
30 19 13 13 29 21 36 17 6 -4 8 -3 4 4 -3 6 3 13 14 17 11 4 18 11 15 16 -4 5
0 9 8 9 8 0 26 14 41 32 14 17 26 29 26 25 0 -7 123 115 157 156 13 15 20 27
17 27 -3 0 4 9 17 20 13 10 20 19 16 20 -4 0 3 11 17 24 15 13 26 28 26 35 0
6 5 11 12 11 6 0 9 3 6 6 -3 3 5 16 19 30 13 13 21 29 18 34 -3 6 1 10 9 10 9
0 16 4 16 8 0 5 21 20 46 33 26 13 48 29 51 36 3 7 9 10 14 7 5 -3 12 2 15 11
6 13 8 14 15 3 6 -8 9 -9 9 -1 0 18 61 74 72 67 6 -4 8 -3 5 3 -3 5 3 16 14
23 10 8 19 18 19 22 0 4 20 27 44 52 25 24 42 47 39 49 -3 3 6 17 21 30 14 13
23 27 19 30 -3 4 0 7 7 7 7 0 11 3 7 6 -3 4 1 13 9 21 8 8 12 19 8 24 -3 5 0
8 8 7 7 -2 12 5 12 15 -1 9 5 17 13 17 8 0 12 4 8 9 -3 5 -1 12 5 16 5 3 10
15 10 26 0 13 4 18 12 13 8 -5 9 -2 5 10 -4 9 -3 14 2 11 5 -3 13 4 16 16 4
11 9 18 11 16 3 -3 23 13 45 34 22 22 45 39 50 39 6 0 7 5 4 10 -3 6 -2 10 4
10 6 0 34 23 63 50 99 94 163 150 171 150 4 0 7 7 7 16 0 8 5 12 10 9 6 -3 13
0 16 8 3 8 14 17 25 20 11 3 18 9 17 14 -2 4 0 8 4 8 4 0 14 9 22 20 9 11 16
16 16 10 0 -5 4 -4 9 3 5 8 24 16 42 18 34 4 70 10 79 15 3 1 10 3 15 4 6 2
12 4 15 5 5 2 35 9 60 14 13 3 15 68 15 512 0 447 -2 509 -15 505 -8 -2 -24
-5 -35 -7 -11 -1 -21 -3 -22 -4 -2 -2 -7 -4 -13 -5 -5 -1 -13 -4 -17 -5 -5 -1
-11 -2 -15 -1 -5 0 -8 -4 -8 -11 0 -6 -3 -8 -6 -5 -7 7 -62 -27 -81 -50 -9
-11 -16 -12 -30 -4 -10 6 -14 11 -10 11 5 0 1 7 -7 16 -9 8 -14 20 -11 25 4 5
-1 9 -10 9 -9 0 -15 5 -13 11 4 12 -69 89 -84 89 -5 0 -6 5 -3 10 3 6 -3 10
-14 10 -12 0 -21 5 -21 10 0 6 5 10 11 10 5 0 8 4 4 9 -3 5 1 15 8 23 8 7 12
19 9 26 -2 6 1 12 7 12 6 0 8 6 6 13 -3 6 33 52 80 101 47 48 82 92 79 97 -3
5 0 9 6 9 6 0 8 5 5 10 -3 6 -2 10 3 10 8 0 15 13 26 50 1 3 6 12 11 20 5 8
10 20 11 25 1 6 8 24 15 40 7 17 12 33 11 37 -1 4 7 23 18 42 13 25 16 36 7
40 -9 3 -8 5 1 5 7 1 10 6 7 11 -3 6 -1 10 6 10 7 0 9 3 6 7 -4 3 -1 13 6 21
10 13 9 14 -3 7 -13 -7 -13 -6 -2 7 7 9 14 29 15 46 1 16 5 28 10 25 4 -2 8 7
8 21 2 33 3 39 10 51 4 6 5 18 4 28 -2 9 0 17 4 17 4 0 8 6 8 13 1 6 5 32 10
57 14 80 8 705 -7 705 -3 0 -11 41 -12 63 0 12 -4 22 -8 22 -4 0 -11 7 -14 16
-4 10 -2 13 7 8 8 -5 7 -2 -2 9 -7 9 -10 17 -7 17 4 0 1 10 -6 23 -7 12 -11
28 -10 35 2 6 -3 12 -9 12 -7 0 -9 3 -6 6 3 4 2 15 -4 26 -6 11 -12 29 -14 40
-3 12 -8 24 -12 27 -5 3 -10 15 -11 26 -2 11 -11 29 -20 39 -13 15 -13 17 -2
11 8 -5 5 4 -8 19 -12 16 -22 37 -22 48 0 10 -6 21 -14 24 -8 3 -12 12 -9 20
3 8 0 14 -7 14 -6 0 -8 5 -5 10 3 6 1 10 -4 10 -6 0 -11 7 -11 15 0 8 -4 15
-10 15 -5 0 -10 9 -10 20 0 11 -4 20 -10 20 -5 0 -10 5 -10 10 0 6 -12 28 -26
50 l-27 40 -1436 0 c-910 0 -1441 -4 -1451 -10z m-40 -1844 c0 -3 -4 -8 -10
-11 -5 -3 -10 -1 -10 4 0 6 5 11 10 11 6 0 10 -2 10 -4z m385 -156 c13 -6 15
-9 5 -9 -8 0 -22 4 -30 9 -18 12 -2 12 25 0z"/>
</g>
</svg>
